<?xml version="1.0" encoding="utf-8"?>
<!-- Generator: Adobe Illustrator 19.1.0, SVG Export Plug-In . SVG Version: 6.00 Build 0)  -->
<svg version="1.1" id="Layer_1" xmlns="http://www.w3.org/2000/svg" xmlns:xlink="http://www.w3.org/1999/xlink" x="0px" y="0px"
	 viewBox="0 0 640 480" style="enable-background:new 0 0 640 480;" xml:space="preserve">
<style type="text/css">
	.st0{fill:#00CADD;}
	.st1{fill:#EEEEEE;}
	.st2{fill:#FFA7A8;}
	.st3{fill:#7518A8;}
	.st4{opacity:0.6;fill:#00CADD;}
</style>
<circle class="st0" cx="320" cy="240" r="179"/>
<path class="st1" d="M269.6,278.1c3.2,11.8,4.6,25.4,9.6,30.5c5.1,5.1,6.6,10.2,6.6,18.3s-3.6,26.4,5.6,26.9
	c9.1,0.5,12.8-5.4,16.7-1.5c4.9,4.8-0.8,11.1,16,21.8c16,10.1,21.9,23.8,35.1,5.3c13.2-18.5,33.4,6.1,34.4,16.7
	c0,0,22.7-32.7,32.3-37.8c9.6-5.1,16.3-15.7,15.2-22.3c-1-6.6-4.4-16.3-11.3-30c-6.9-13.7-22.2-38.1-62.8-58.4S262.9,236.7,261,245
	C259.1,253.4,268.2,272.7,269.6,278.1z"/>
<path class="st2" d="M430.4,288.8c-0.3,1.5-0.6,2.7-0.6,2.7C430.5,290.3,430.6,289.5,430.4,288.8z"/>
<g>
	<path class="st3" d="M282.8,306c-4.7,2.3,2,5.6,5.1,4.1c3-1.5,11.2-7.1,18.8-7.1s10.7-2.5,10.7-2.5S297.1,298.8,282.8,306z"/>
	<path class="st3" d="M299.3,317.2c0,0,3.8,4.1,0,5.6c0,0,14-2.3,16-12.3C315.3,310.4,310.2,315.1,299.3,317.2z"/>
	<g>
		<path class="st3" d="M432.5,151.9c5.6,0.8,10.4,1.4,13.9-0.5s14.6-3.4,13.2-6.3c-1.4-2.9,0.6-2.3-4.9-3.7
			c-5.5-1.4-14.3-5.3-10.5-6.9c3.8-1.6,3.5-1.6,6.2-1.3c0,0-8-3.5-8.5,0.3c-0.5,3.8,7.9,5.9,5.1,9.1s-1.1,5-12.3,3.4
			c-11.2-1.5-4.9-1.6-10.2-6.2s-9.5-7.6-8.9-12.2c0.6-4.6-1.3-14.5-5.5-19s-2.3-0.6-5-0.7c-2.7-0.1,1.8-1.9-3.6-2.3
			c-5.4-0.4-4.9-6.2-9.5-1.3c-4.6,4.8-5.4,15-8.4,10.6c-3-4.3-8.4-0.6-6.4-5.7c1.9-5.2,5.9-3.4,2.2-6.9c-3.7-3.5-6.6-4.5-10.2-7.1
			c-3.6-2.6-5.3-3.4-8.2,0.4s-1.1,1.4-6.3,6.1s-1.9,2.8-2.6,8.1c-0.7,5.3,0.8,7.1-3.5,5.5c-4.3-1.5,0.4-3.3-5.5-4.1
			c-5.9-0.8-7.3-1.6-14.1-0.7c-6.8,0.9-4.9,0.8-8.4-2.4c-3.5-3.2-8.7-6.6-16.5-4.7s-6.9,1.8-13.7,0.8c-6.8-0.9-7.8-2.6-12-0.2
			c-4.3,2.4-14.3,7.4-22.9,6.2s-19.8-2.7-18.1-8.5s5.9-8.2,1.3-9.8c-4.6-1.5-6,0.1-7.4,3.8c-1.4,3.7,3.2,18.2,7.5,20
			c4.3,1.8,11.5,4.3,17.4,4.8c6,0.5,16.3-0.5,18,2.5c1.7,2.9,2,7.2-9,3.9c-11-3.3-19-6.5-27.1-4.6c-8.1,1.9-10.8,6-14.7,10
			c-3.9,4-3.4,4.7-9.9,8.3c-6.5,3.6-10.4,7.9-10.7,14.2c-0.3,6.3,7.4,11.6,4.7,16.3c-2.8,4.7-6.2,7.9-6.6,12.7
			c-0.4,5.1,3.7,12.9,3,17.9s5.7,13.4,10.3,14.7c4.7,1.2,10-2.8,9.8-0.8c-0.3,2.1-0.2,7.8,5.2,8.6s11.8-2.6,10.8-6.3
			c-1-3.8-4.3-5.7-4.9-1.9c-0.5,3.8-1.4,5.8-4.3,4.8c-2.9-1-0.3-4.3-3.2-7.7c-2.8-3.4-2.3-0.6-8.3-1.1c-6-0.5-11-3.6-10.6-8.1
			c0.3-4.5-5-14.3-3.8-18c1.1-3.8,1.3-5,6.2-12.2s-0.7-12.7-0.4-16.6c0.2-3.9,4.6-2.7,7.5-6.5c2.9-3.8,3.6-8.5,8.2-11.5
			s17.5-11.1,25.9-8.2c8.3,3-4.5,0-9.6,4.1s0,4.5-4.4,5.7c-4.4,1.2-3.6,2.2-4.2,6.1s1.3,3.8,6.1,1.4c4.8-2.3,6.3-4.3,11.8-0.2
			c5.5,4.1,12.6,2.6,16.7,3.2c4.1,0.6,3.5,1.1,3.1,4c-0.4,3,4.7,0.7,5.5,3.5c0.8,2.8,0.8,2.8-4.9,4.8c-5.7,1.9-3,4.4-7.6,5
			s-8.7-2.4-9.6,2c-0.9,4.4-0.1,2.7-4.9,4.8c-4.8,2-12.2,9.5-5.5,17.6c6.7,8.2,10.7,5.7,9.9,11.6c-0.8,5.9-2.3,12.3,1.8,15
			c0,0-1.9,9.7-1,20.7c0.9,11,8.7,24.1,8.7,24.1s14.8-2.5,19.2-5.5c4.3-3,6.8-7.8,12.7-7c5.9,0.8,10.2,0.5,11.3,5.2
			c1.2,4.7,3.3,16.1,6.4,18.7c3.1,2.5,16.2,1,17.1-3.1c0.9-4.1,5.3-3.8,6.6,0c1.3,3.8-3.7,7.3-1.4,10.1c2.3,2.7,9.3,6.7,13.7,3.4
			c0.1-0.1,0.2-0.1,0.3-0.2c0.1,4.6,2.7,19.2,1.9,22.2c-2,7.3-6.1,12.7-8.5,16.9c-2.4,4.2-9.8,12.2-8.5,17.5
			c1.4,5.3-0.1,10.5-3.6,9.8c-3.5-0.8-3.4,0.5-13.7-0.3c-10.2-0.8-11.8,0.9-11.8,0.9s1.2,8.5,4.7,11.1s13.4-1.2,17.9-0.8
			c4.5,0.3,7.9,1.7,6.7,6.1c-1.2,4.4-1.2,6.8-4.4,7.5c-3.1,0.8-5.3-2.8-3.1-3.7c2.2-0.9,4.4-3.6,1.2-4.1c-3.3-0.4-8.3,1.6-10.2,1.3
			c-2-0.3,2.2,2.7,4.1,4.2c1.9,1.5,3.5,6.2,10.5,9.9c7,3.7,15.8,11.8,24.2,3.3c8.4-8.5,11.6-14.4,16-13.2c4.4,1.2,8.8-0.3,9.2-3
			s9.2-25.3,0.9-34.9c-8.3-9.6-13-6-17.7-11.8c-4-5-9.7-34.2-11.1-41.9c3.4-2,6.7-3.9,7.1-5.7c0.7-2.6,9.6-10.7,15.2-9.4
			c5.5,1.4,14.4,9.2,14.4,9.2s9.5-0.8,8.8,17.2c0,0,4-0.7,6.5,0.9c2.5,1.6,11.1,6.7,11,3.3c-0.1-3.3,1.4-3.5,5.1,2
			c3.8,5.5,6.8,5.4,6.8,5.4s-1.1-5.3-1.7-9.3c-0.7-4-3.1-6.2-3.8-9.9c-0.7-3.7,1.5-4.6,3-2c1,1.8,2.7,2.6,3,4c0.5-2.9,0.8-7.2-1.7-9
			c0,0-1-7.7-2.8-10.3c-1.7-2.7-1.8-6.9,1.6-4.9c3.3,2,7.6-5,5.8-6.7s-7.6-3.8-10.3-8.4c-2.7-4.6-5-14.3-3.4-21.3
			c1.6-7,4.6-18.1,0.1-20.5s-6.8,0.9-6-4.7c0.8-5.6,5.5-4.7-0.1-12.7c-5.5-8-3.8-9.9-0.7-12.8c3.1-2.9,7.8-1.9,10.4-5.2
			c2.6-3.3,4.5-12.7,2.9-16.5C424.7,152.1,426.9,151.2,432.5,151.9z M278.5,186.7c-0.7,4.7-3.6,6.7-7.6,9.5c-4,2.8-4.2,6.1-5.5,9.5
			s-6.3,6.4-6.3,6.4c0.6-4.4-0.4-8.2,1.2-13.1s-1.2-4.4-0.7-7.9c0.5-3.6,2.8-7.2,6.5-9.7s7.3-6.2,11.2-4.7
			C281.2,178.1,279.1,182,278.5,186.7z M290.9,131.8c-3.4-1.4-9.9-4.4-11.3-5.8s1.8-3.2,6.2-3.7c3.6-0.4,10.3-0.1,9.8,5.7
			C295.1,133.9,294.3,133.1,290.9,131.8z"/>
	</g>
</g>
<path class="st2" d="M440.6,288.8c-0.3,1.5-0.6,2.7-0.6,2.7C440.6,290.3,440.8,289.5,440.6,288.8z"/>
</svg>
